# xmcd
#
# Track frame offsets:
#	150
#	13150
#	26500
#	43332
#	57865
#	76230
#	90070
#	103467
#	117885
#	136375
#	164392
#	178205
#	190640
#	203942
#	224475
#	242097
#
# Disc length: 3412 seconds
#
# Revision: 0
# Processed by: cddbd v1.5.2PL0 Copyright (c) Steve Scherf et al.
# Submitted via: EasyCDDAExtractor 12.1.0.1
#
DISCID=de0d5210
DTITLE=Inconnu - La magie des annees 50
DYEAR=1900
DGENRE=Retro
TTITLE0=Strangers in the Night
TTITLE1=Spanish Eyes
TTITLE2=Georgia On My Mind
TTITLE3=Mack The Knife
TTITLE4=My Way
TTITLE5=Sixteen Candles
TTITLE6=Crying Time
TTITLE7=Chances Are
TTITLE8=Summertime
TTITLE9=Stardust
TTITLE10=To Each His Own
TTITLE11=Crying
TTITLE12=It's Up To You
TTITLE13=As Time Goes By
TTITLE14=Over The Rainbow
TTITLE15=Love Is Many Splendored Thing
EXTD=
EXTT0=
EXTT1=
EXTT2=
EXTT3=
EXTT4=
EXTT5=
EXTT6=
EXTT7=
EXTT8=
EXTT9=
EXTT10=
EXTT11=
EXTT12=
EXTT13=
EXTT14=
EXTT15=
PLAYORDER=
